<mxfile host="65bd71144e">
    <diagram id="FXS_QtY74_AyWa6GRztd" name="Page-1">
        <mxGraphModel dx="1263" dy="926" grid="1" gridSize="10" guides="1" tooltips="1" connect="1" arrows="1" fold="1" page="1" pageScale="1" pageWidth="850" pageHeight="1100" background="none" math="0" shadow="0">
            <root>
                <mxCell id="0"/>
                <mxCell id="1" parent="0"/>
                <mxCell id="2" value="&lt;font style=&quot;font-size: 16px;&quot;&gt;&lt;b&gt;Updating a cluster through the web console&lt;/b&gt;&lt;/font&gt;" style="text;strokeColor=none;align=center;fillColor=none;html=1;verticalAlign=middle;whiteSpace=wrap;rounded=0;" vertex="1" parent="1">
                    <mxGeometry x="80" y="60" width="350" height="10" as="geometry"/>
                </mxCell>
                <mxCell id="3" value="" style="whiteSpace=wrap;html=1;fontSize=16;strokeColor=#23445d;fillColor=#F0ECEC;" vertex="1" parent="1">
                    <mxGeometry x="35" y="100" width="795" height="290" as="geometry"/>
                </mxCell>
                <mxCell id="6" value="&lt;span style=&quot;color: rgb(26, 26, 26); font-size: 10px;&quot;&gt;Review and complete the prerequisites listed &lt;/span&gt;&lt;a style=&quot;color: rgb(26, 26, 26); font-size: 10px;&quot; target=&quot;_blank&quot; href=&quot;https://docs.openshift.com/container-platform/4.15/updating/updating_a_cluster/updating-cluster-web-console.html#before-updating-ocp_updating-cluster-web-console&quot;&gt;here&lt;/a&gt;" style="whiteSpace=wrap;html=1;strokeColor=#36393d;fontSize=10;fillColor=#FFFFFF;" vertex="1" parent="1">
                    <mxGeometry x="40" y="200" width="90" height="60" as="geometry"/>
                </mxCell>
                <mxCell id="8" value="&lt;font color=&quot;#000000&quot;&gt;From the web console, select &lt;strong&gt;Administration&lt;/strong&gt; â†’ &lt;strong&gt;Cluster Settings&lt;/strong&gt; and review the contents of the &lt;strong&gt;Details&lt;/strong&gt; tab.&lt;/font&gt;" style="whiteSpace=wrap;html=1;strokeColor=#6c8ebf;fontSize=10;fillColor=#FFFFFF;" vertex="1" parent="1">
                    <mxGeometry x="145" y="200" width="140" height="60" as="geometry"/>
                </mxCell>
                <mxCell id="10" value="&lt;font color=&quot;#000000&quot;&gt;Not a production cluster: select a version to update to, and select &lt;strong&gt;Save&lt;/strong&gt;.&lt;/font&gt;" style="whiteSpace=wrap;html=1;strokeColor=#6c8ebf;fontSize=10;fillColor=#FFFFFF;" vertex="1" parent="1">
                    <mxGeometry x="360" y="120" width="90" height="60" as="geometry"/>
                </mxCell>
                <mxCell id="11" value="&lt;font color=&quot;#000000&quot;&gt;Production cluster: Set the &lt;strong&gt;Channel&lt;/strong&gt; for the version that you want to update to: stable-*, eus-* or fast-*&lt;/font&gt;" style="whiteSpace=wrap;html=1;strokeColor=#6c8ebf;fontSize=10;fillColor=#FFFFFF;" vertex="1" parent="1">
                    <mxGeometry x="360" y="280" width="100" height="80" as="geometry"/>
                </mxCell>
                <mxCell id="12" value="&lt;font color=&quot;#000000&quot;&gt;After the update completes and the Cluster Version Operator refreshes the available updates, check if more updates are available in your current channel.&lt;/font&gt;" style="whiteSpace=wrap;html=1;strokeColor=#6c8ebf;fontSize=10;fillColor=#FFFFFF;" vertex="1" parent="1">
                    <mxGeometry x="470" y="170" width="110" height="130" as="geometry"/>
                </mxCell>
                <mxCell id="13" value="&lt;font color=&quot;#050505&quot;&gt;Change the &lt;strong&gt;Channel&lt;/strong&gt; to the stable-*, eus-* or fast-* channel for the next minor version, and update to the version that you want in that channel.&lt;/font&gt;" style="whiteSpace=wrap;html=1;strokeColor=#6c8ebf;fontSize=10;fillColor=#FFFFFF;" vertex="1" parent="1">
                    <mxGeometry x="660" y="120" width="150" height="60" as="geometry"/>
                </mxCell>
                <mxCell id="14" value="&lt;font color=&quot;#030303&quot;&gt;Continue to perform updates in the current channel until you can no longer update.&lt;/font&gt;" style="whiteSpace=wrap;html=1;strokeColor=#6c8ebf;fontSize=10;fillColor=#FFFFFF;" vertex="1" parent="1">
                    <mxGeometry x="660" y="290" width="150" height="60" as="geometry"/>
                </mxCell>
                <mxCell id="17" value="Updating a production cluster?" style="text;strokeColor=none;align=center;fillColor=none;html=1;verticalAlign=middle;whiteSpace=wrap;rounded=0;labelBackgroundColor=#ffffff;fontSize=10;fontColor=#000000;" vertex="1" parent="1">
                    <mxGeometry x="300" y="207.5" width="60" height="45" as="geometry"/>
                </mxCell>
                <mxCell id="21" value="Are there additional updates available for your cluster?" style="text;strokeColor=none;align=center;fillColor=none;html=1;verticalAlign=middle;whiteSpace=wrap;rounded=0;labelBackgroundColor=#ffffff;fontSize=10;fontColor=#000000;" vertex="1" parent="1">
                    <mxGeometry x="600" y="220" width="60" height="30" as="geometry"/>
                </mxCell>
            </root>
        </mxGraphModel>
    </diagram>
</mxfile>